<?xml version="1.0" encoding="UTF-8"?>
<!DOCTYPE svg PUBLIC "-//W3C//DTD SVG 1.1//EN" "http://www.w3.org/Graphics/SVG/1.1/DTD/svg11.dtd">
<!-- Creator: CorelDRAW 2026 -->
<svg xmlns="http://www.w3.org/2000/svg" xml:space="preserve" width="20in" height="20in" version="1.1" style="shape-rendering:geometricPrecision; text-rendering:geometricPrecision; image-rendering:optimizeQuality; fill-rule:evenodd; clip-rule:evenodd"
viewBox="0 0 19633.03 19633.03"
 xmlns:xlink="http://www.w3.org/1999/xlink"
 xmlns:xodm="http://www.corel.com/coreldraw/odm/2003">
 <defs>
  <style type="text/css">
   <![CDATA[
    .fil1 {fill:#FEFEFE;fill-rule:nonzero}
    .fil0 {fill:#CD2527;fill-rule:nonzero}
   ]]>
  </style>
 </defs>
 <g id="Layer_x0020_1">
  <metadata id="CorelCorpID_0Corel-Layer"/>
  <g id="_92930039824">
   <path class="fil0" d="M19633.03 9816.51c0,5421.54 -4395.05,9816.51 -9816.51,9816.51 -5421.54,0 -9816.51,-4394.97 -9816.51,-9816.51 0,-5421.54 4394.97,-9816.51 9816.51,-9816.51 5421.47,0 9816.51,4394.97 9816.51,9816.51z"/>
   <polygon class="fil1" points="7358.02,8574.24 9686.2,7514.44 8852.24,12136 6784.65,13056.86 "/>
   <polygon class="fil1" points="10051.04,7740.28 14220.93,13334.84 12552.94,13942.96 9599.29,10381.2 "/>
   <polygon class="fil1" points="13717.05,5446.87 16271.07,4213.28 14551,12883.11 12969.96,10798.16 "/>
   <polygon class="fil1" points="8730.59,12570.36 8365.73,14516.26 3674.67,15419.78 3361.88,15124.38 "/>
   <path class="fil1" d="M8730.59 6610.94c0,403.02 -326.72,729.76 -729.74,729.76 -403,0 -729.66,-326.74 -729.66,-729.76 0,-403 326.66,-729.74 729.66,-729.74 403.02,0 729.74,326.74 729.74,729.74z"/>
  </g>
 </g>
</svg>
